HIERARCHY
ROOT SpineBase
{
  OFFSET 0.000000 0.000000 0.000000
  CHANNELS 6 Xposition Yposition Zposition Zrotation Xrotation Yrotation
  JOINT SpineMid
  {
    OFFSET 0.000000 31.960185 0.000000
    CHANNELS 3 Zrotation Xrotation Yrotation
    JOINT SpineShoulder
    {
      OFFSET 0.090038 23.732976 -0.793515
      CHANNELS 3 Zrotation Xrotation Yrotation
      JOINT Neck
      {
        OFFSET 0.071063 7.849821 -0.599502
        CHANNELS 3 Zrotation Xrotation Yrotation
        JOINT Head
        {
          OFFSET 4.752801 12.326947 4.155684
          CHANNELS 3 Zrotation Xrotation Yrotation
          End Site
          {
            OFFSET 0 0 0
          }
        }
      }
      JOINT ShoulderLeft
      {
        OFFSET -10.049851 -2.960584 -11.750797
        CHANNELS 3 Zrotation Xrotation Yrotation
        JOINT ElbowLeft
        {
          OFFSET -5.591031 -22.131274 -8.145285
          CHANNELS 3 Zrotation Xrotation Yrotation
          JOINT WristLeft
          {
            OFFSET 19.785280 -12.764251 -5.885637
            CHANNELS 3 Zrotation Xrotation Yrotation
            JOINT HandLeft
            {
              OFFSET 6.142429 0.146599 -2.844436
              CHANNELS 3 Zrotation Xrotation Yrotation
              JOINT HandTipLeft
              {
                OFFSET 7.232061 -2.574992 -1.253619
                CHANNELS 3 Zrotation Xrotation Yrotation
                End Site
                {
                  OFFSET 0 0 0
                }
              }
              JOINT ThumbLeft
              {
                OFFSET 2.166125 0.973914 -0.278827
                CHANNELS 3 Zrotation Xrotation Yrotation
                End Site
                {
                  OFFSET 0 0 0
                }
              }
            }
          }
        }
      }
      JOINT ShoulderRight
      {
        OFFSET 11.420071 -3.622416 12.657601
        CHANNELS 3 Zrotation Xrotation Yrotation
        JOINT ElbowRight
        {
          OFFSET 2.619063 -24.489859 1.366290
          CHANNELS 3 Zrotation Xrotation Yrotation
          JOINT WristRight
          {
            OFFSET 6.915512 -12.968289 -17.209706
            CHANNELS 3 Zrotation Xrotation Yrotation
            JOINT HandRight
            {
              OFFSET 3.515452 -0.940035 -3.661490
              CHANNELS 3 Zrotation Xrotation Yrotation
              JOINT HandTipRight
              {
                OFFSET 2.382238 -1.175900 -5.466367
                CHANNELS 3 Zrotation Xrotation Yrotation
                End Site
                {
                  OFFSET 0 0 0
                }
              }
              JOINT ThumbRight
              {
                OFFSET 4.405592 1.098295 0.525245
                CHANNELS 3 Zrotation Xrotation Yrotation
                End Site
                {
                  OFFSET 0 0 0
                }
              }
            }
          }
        }
      }
    }
  }
  JOINT HipLeft
  {
    OFFSET -4.049449 1.732726 -8.342544
    CHANNELS 3 Zrotation Xrotation Yrotation
    JOINT KneeLeft
    {
      OFFSET -7.772800 -34.618410 -4.382033
      CHANNELS 3 Zrotation Xrotation Yrotation
      JOINT AnkleLeft
      {
        OFFSET -6.729759 -37.484675 5.513585
        CHANNELS 3 Zrotation Xrotation Yrotation
        JOINT FootLeft
        {
          OFFSET 2.124704 -7.781886 -6.091109
          CHANNELS 3 Zrotation Xrotation Yrotation
          End Site
          {
            OFFSET 0 0 0
          }
        }
      }
    }
  }
  JOINT HipRight
  {
    OFFSET 4.995608 -0.014808 1.094717
    CHANNELS 3 Zrotation Xrotation Yrotation
    JOINT KneeRight
    {
      OFFSET 0.231047 -36.367532 3.052668
      CHANNELS 3 Zrotation Xrotation Yrotation
      JOINT AnkleRight
      {
        OFFSET -5.954795 -37.824828 18.016638
        CHANNELS 3 Zrotation Xrotation Yrotation
        JOINT FootRight
        {
          OFFSET 4.167711 -7.449761 -3.642271
          CHANNELS 3 Zrotation Xrotation Yrotation
          End Site
          {
            OFFSET 0 0 0
          }
        }
      }
    }
  }
}
MOTION
Frames: 5
Frame Time: 0.033333
-43.790513 83.855762 346.363854 0.359453 1.329467 -47.728374 -0.292475 0.057058 47.722595 0.030119 0.158374 0.001423 0.983389 -4.460302 0.706387 0.000000 0.000000 0.000000 12.009096 0.149896 -4.937756 -6.969868 -7.527205 -4.245908 -5.926906 5.196878 -41.992335 10.265255 15.828505 50.236891 0.000000 0.000000 0.000000 0.000000 0.000000 0.000000 10.325430 11.568111 1.100007 -10.361949 13.985059 8.621465 -5.779703 -27.414473 -16.263809 10.375687 -0.192978 -40.548166 0.000000 0.000000 0.000000 0.000000 0.000000 0.000000 3.404099 -3.469994 48.623704 -0.028746 3.522534 -0.783528 -6.155016 1.840472 5.431241 0.000000 0.000000 0.000000 -0.211192 -3.350336 47.499575 2.510389 9.143693 -1.073793 -8.423360 -2.474388 7.924377 0.000000 0.000000 0.000000
-43.772270 83.865941 346.356064 0.347484 1.360730 -47.717767 -0.281530 0.049181 47.711633 0.021621 0.150463 0.000227 1.037740 -4.657755 0.774211 0.000000 0.000000 0.000000 12.171977 0.104870 -4.975444 -8.151181 -7.813593 -4.266998 -4.148643 5.692069 -41.721226 13.936108 18.333429 45.769699 0.000000 0.000000 0.000000 0.000000 0.000000 0.000000 9.953177 12.113485 1.126387 -9.269783 13.634167 7.911195 -5.599937 -26.596269 -12.566133 7.849402 -3.450044 -41.438966 0.000000 0.000000 0.000000 0.000000 0.000000 0.000000 3.457819 -3.507619 48.623650 -0.024851 3.556284 -0.791662 -6.193585 2.113291 5.541567 0.000000 0.000000 0.000000 -0.190987 -3.345610 47.489502 2.493112 9.117483 -1.077429 -8.481902 -2.103873 8.182303 0.000000 0.000000 0.000000
-43.754175 83.873730 346.349955 0.337703 1.384133 -47.733730 -0.275734 0.038517 47.727086 0.008909 0.145368 -0.001485 1.134560 -4.879107 0.843997 0.000000 0.000000 0.000000 12.455254 -0.011931 -5.028914 -9.307435 -8.078424 -4.376907 0.145541 6.638397 -40.771763 15.573115 18.121134 41.763517 0.000000 0.000000 0.000000 0.000000 0.000000 0.000000 9.718779 12.966714 1.157811 -10.030519 13.035216 8.956536 -1.054977 -25.191437 -14.513994 3.532130 -6.947019 -37.338019 0.000000 0.000000 0.000000 0.000000 0.000000 0.000000 3.509237 -3.548081 48.652521 -0.016936 3.597912 -0.802193 -5.946357 2.831258 5.545847 0.000000 0.000000 0.000000 -0.180692 -3.336494 47.505693 2.481347 9.093124 -1.080427 -8.798233 -2.000106 8.395069 0.000000 0.000000 0.000000
-43.740936 83.878793 346.343256 0.321062 1.401575 -47.748812 -0.274037 0.031760 47.741554 -0.003647 0.141075 -0.003476 1.306677 -5.153810 0.917300 0.000000 0.000000 0.000000 12.927621 -0.252959 -5.105178 -10.808912 -8.178906 -4.289382 9.454657 8.369495 -40.241190 14.881416 16.636353 39.454090 0.000000 0.000000 0.000000 0.000000 0.000000 0.000000 9.292707 14.197336 1.213768 -8.726379 12.770441 8.288459 0.727587 -24.813126 -14.267593 -0.409281 -10.514560 -33.554844 0.000000 0.000000 0.000000 0.000000 0.000000 0.000000 3.564771 -3.576663 48.679882 -0.013777 3.640648 -0.812217 -6.260386 2.825239 5.800803 0.000000 0.000000 0.000000 -0.137944 -3.331566 47.523154 2.444568 9.117503 -1.093002 -8.831661 -1.799341 8.564008 0.000000 0.000000 0.000000
-43.736174 83.880176 346.332669 0.301942 1.406968 -47.765526 -0.268363 0.013863 47.757490 -0.016206 0.126249 -0.005582 1.523522 -5.337045 0.956989 0.000000 0.000000 0.000000 13.521781 -0.486444 -5.220685 -10.427261 -7.764386 -4.137181 17.691175 9.821441 -39.071541 9.269966 12.044333 40.724937 0.000000 0.000000 0.000000 0.000000 0.000000 0.000000 9.107799 14.845941 1.242727 -8.747010 13.536703 8.969806 0.844860 -25.977233 -14.818151 -2.911238 -12.658986 -29.918441 0.000000 0.000000 0.000000 0.000000 0.000000 0.000000 3.616314 -3.587930 48.706770 -0.018267 3.680973 -0.820486 -6.672500 2.513986 6.048512 0.000000 0.000000 0.000000 -0.082682 -3.324004 47.543575 2.417242 9.177689 -1.102383 -8.898872 -1.757548 8.644265 0.000000 0.000000 0.000000
